<svg width="343" height="116" viewBox="0 0 343 116" fill="none" xmlns="http://www.w3.org/2000/svg">
<path d="M131.704 33.088V29.104H145.912V46H142.408L141.688 42.016C139.48 45.328 135.784 46.672 131.944 46.672C122.776 46.672 116.92 39.088 116.92 29.44C116.92 19.792 122.92 12.208 132.184 12.208C138.568 12.208 143.992 15.472 145.768 21.376H140.872C139.288 18.16 136.264 16.336 132.184 16.336C125.272 16.336 121.432 22.288 121.432 29.44C121.432 36.592 125.32 42.496 132.232 42.496C136.936 42.496 141.256 39.952 141.448 34.096V33.088H131.704ZM169.104 25.936L169.488 22.72H173.136V46H169.488L169.104 42.736C167.28 45.232 164.496 46.624 161.328 46.624C154.848 46.624 150.24 41.296 150.24 34.336C150.24 27.376 154.848 22.048 161.328 22.048C164.496 22.048 167.28 23.44 169.104 25.936ZM161.76 42.736C166.032 42.736 169.104 39.136 169.104 34.336C169.104 29.536 166.032 25.984 161.712 25.984C157.392 25.984 154.416 29.536 154.416 34.336C154.416 39.136 157.44 42.736 161.76 42.736ZM187.977 40.96L194.505 22.72H198.921L190.137 46H185.721L176.937 22.72H181.449L187.977 40.96ZM204.796 19.072C203.26 19.072 202.012 17.824 202.012 16.336C202.012 14.848 203.26 13.6 204.796 13.6C206.332 13.6 207.58 14.848 207.58 16.336C207.58 17.824 206.332 19.072 204.796 19.072ZM206.908 46H202.732V22.72H206.908V46ZM224.509 22.096C229.501 22.096 233.533 26.176 233.533 31.168V46H229.357V31.984C229.357 28.672 226.669 25.984 223.405 25.984C220.141 25.984 217.453 28.672 217.453 31.984V46H213.277V22.72H216.925L217.309 25.696C218.989 23.488 221.581 22.096 224.509 22.096ZM132.184 104.672C122.92 104.672 116.92 97.088 116.92 87.44C116.92 77.792 122.92 70.208 132.184 70.208C138.616 70.208 143.896 73.424 145.816 79.376H140.824C139.24 76.208 136.216 74.384 132.184 74.384C125.272 74.384 121.432 80.288 121.432 87.44C121.432 94.592 125.272 100.496 132.184 100.496C136.312 100.496 139.432 98.624 141.016 95.072H146.008C144.04 101.408 138.76 104.672 132.184 104.672ZM160.54 104.72C153.868 104.72 149.068 99.296 149.068 92.336C149.068 85.376 153.868 80 160.588 80C167.26 80 172.108 85.376 172.108 92.336C172.108 99.296 167.26 104.72 160.54 104.72ZM160.588 100.784C164.86 100.784 167.932 97.136 167.932 92.336C167.932 87.536 164.86 83.936 160.54 83.936C156.22 83.936 153.244 87.536 153.244 92.336C153.244 97.136 156.268 100.784 160.588 100.784ZM188.088 80.096C193.08 80.096 197.112 84.176 197.112 89.168V104H192.936V89.984C192.936 86.672 190.248 83.984 186.984 83.984C183.72 83.984 181.032 86.672 181.032 89.984V104H176.855V80.72H180.504L180.888 83.696C182.568 81.488 185.16 80.096 188.088 80.096ZM211.598 104.672C205.502 104.672 201.902 101.84 201.278 97.664H205.598C206.174 99.824 208.238 101.216 211.646 101.216C215.246 101.216 216.878 99.536 216.878 97.424C216.878 95.36 215.63 94.448 212.654 93.968L209.15 93.44C204.638 92.768 201.902 90.848 201.902 86.96C201.902 83.168 205.214 79.952 210.878 79.952C216.254 79.952 219.662 82.544 220.478 86.432H216.206C215.534 84.512 213.614 83.408 210.782 83.408C207.758 83.408 206.078 84.8 206.078 86.768C206.078 88.592 207.71 89.36 210.302 89.744L213.806 90.32C218.222 90.992 221.054 92.912 221.054 97.232C221.054 101.408 217.406 104.672 211.598 104.672ZM241.111 94.88V80.72H245.335V104H241.639L241.303 100.976C239.671 103.184 237.127 104.624 234.247 104.624C229.159 104.624 225.319 100.592 225.319 95.696V80.72H229.495V94.88C229.495 98.048 232.135 100.688 235.303 100.688C238.519 100.688 241.111 98.048 241.111 94.88ZM255.844 104H251.668V70.88H255.844V104ZM270.136 100.208H273.88V104H269.416C266.344 104 263.944 101.6 263.944 98.528V84.464H259.96V80.72H263.944V74.864H268.12V80.72H273.544V84.464H268.12V98.192C268.12 99.296 269.032 100.208 270.136 100.208ZM280.264 77.072C278.728 77.072 277.48 75.824 277.48 74.336C277.48 72.848 278.728 71.6 280.264 71.6C281.8 71.6 283.048 72.848 283.048 74.336C283.048 75.824 281.8 77.072 280.264 77.072ZM282.376 104H278.2V80.72H282.376V104ZM299.978 80.096C304.97 80.096 309.002 84.176 309.002 89.168V104H304.826V89.984C304.826 86.672 302.138 83.984 298.874 83.984C295.61 83.984 292.922 86.672 292.922 89.984V104H288.746V80.72H292.394L292.778 83.696C294.458 81.488 297.05 80.096 299.978 80.096ZM332.033 83.744L332.369 80.72H336.017V103.424C336.017 109.616 331.121 113.36 325.073 113.36C319.745 113.36 315.089 110.912 314.225 105.968H318.689C319.361 108.08 321.521 109.76 325.121 109.76C329.297 109.76 331.889 107.264 331.889 103.424V99.92C330.113 102.176 327.473 103.424 324.401 103.424C318.065 103.424 313.553 98.336 313.553 91.76C313.553 85.136 318.065 80.048 324.449 80.048C327.569 80.048 330.257 81.344 332.033 83.744ZM324.833 99.536C329.057 99.536 331.985 96.176 331.985 91.76C331.985 87.296 329.057 83.936 324.833 83.936C320.609 83.936 317.729 87.296 317.729 91.76C317.729 96.176 320.609 99.536 324.833 99.536Z" fill="black"/>
<path d="M21.3461 75.8727C20.0663 76.925 19.8819 78.8155 20.9342 80.0953C21.9865 81.3751 23.877 81.5595 25.1568 80.5072L23.2514 78.1899L21.3461 75.8727ZM74.6053 38.7108C74.7662 37.0618 73.5598 35.5946 71.9108 35.4337L45.0383 32.8124C43.3893 32.6515 41.9221 33.8579 41.7612 35.5069C41.6004 37.156 42.8068 38.6232 44.4558 38.784L68.3424 41.1141L66.0123 65.0007C65.8515 66.6497 67.0579 68.117 68.7069 68.2778C70.3559 68.4387 71.8231 67.2323 71.984 65.5832L74.6053 38.7108ZM23.2514 78.1899L25.1568 80.5072L73.5248 40.7368L71.6195 38.4195L69.7142 36.1023L21.3461 75.8727L23.2514 78.1899Z" fill="#227AF2"/>
<circle cx="48" cy="58" r="45" stroke="#227AF2" stroke-width="6"/>
</svg>
